# xmcd
#
# Track frame offsets: 
#        150
#        56306
#        73351
#        102571
#
# Disc length: 1586 seconds
#
# Revision: 0
# Processed by: cddbd v1.5.2PL0 Copyright (c) Steve Scherf et al.
# Submitted via: ExactAudioCopyFreeDBPlugin 1.0
#
DISCID=37063004
DTITLE=Ken Hensley and Live Fire - 2013 -  Live!! Cd 2
DYEAR=2013
DGENRE=
TTITLE0=Lady In Black (12:28)
TTITLE1=Rain (3:47)
TTITLE2=Gypsy (6:29)
TTITLE3=Love Machine (3:39)
EXTD=
EXTT0=
EXTT1=
EXTT2=
EXTT3=
PLAYORDER=
